<?xml version="1.0" standalone="no"?>
<!DOCTYPE svg PUBLIC "-//W3C//DTD SVG 1.1//EN" "http://www.w3.org/Graphics/SVG/1.1/DTD/svg11.dtd" >
<svg xmlns="http://www.w3.org/2000/svg">
<metadata>Generated by IcoMoon</metadata>
<defs>
<font id="libhouse-icons" horiz-adv-x="1024">
<font-face units-per-em="1024" ascent="960" descent="-64" />
<missing-glyph horiz-adv-x="1024" />
<glyph unicode="&#x20;" horiz-adv-x="512" d="" />
<glyph unicode="&#xe900;" glyph-name="eye" d="M512 753.201c-195.646 0-373.068-107.040-503.988-280.901-10.683-14.244-10.683-34.144 0-48.388 130.919-174.068 308.342-281.11 503.988-281.11s373.066 107.042 503.99 280.901c10.678 14.244 10.678 34.144 0 48.387-130.924 174.071-308.343 281.111-503.99 281.111zM526.034 233.085c-129.872-8.169-237.121 98.867-228.952 228.951 6.703 107.249 93.634 194.18 200.883 200.883 129.872 8.169 237.119-98.871 228.949-228.952-6.912-107.038-93.838-193.97-200.88-200.882zM519.541 332.373c-69.964-4.398-127.778 53.208-123.17 123.17 3.561 57.814 50.483 104.526 108.297 108.297 69.966 4.399 127.776-53.206 123.168-123.169-3.772-58.024-50.694-104.736-108.296-108.297z" />
<glyph unicode="&#xe901;" glyph-name="filter" d="M146.286 208.822v714.608c0 10.112-8.192 18.286-18.286 18.286s-18.286-8.174-18.286-18.286v-714.608c-61.934-8.92-109.714-62.185-109.714-126.538 0-70.559 57.417-128 128-128s128 57.441 128 128c0 64.353-47.78 117.618-109.714 126.538zM128-9.142c-50.414 0-91.429 41.017-91.429 91.426 0 50.415 41.015 91.432 91.429 91.432s91.428-41.017 91.428-91.432c0-50.409-41.015-91.426-91.428-91.426zM530.288 581.578v341.852c0 10.112-8.192 18.286-18.286 18.286s-18.286-8.174-18.286-18.286v-340.7c-65.865-7.241-117.284-63.195-117.284-130.944 0-67.746 51.42-123.702 117.284-130.944v-348.268c0-10.115 8.192-18.29 18.286-18.29s18.286 8.175 18.286 18.29v349.423c62.17 10.547 109.712 64.654 109.712 129.789s-47.542 119.241-109.712 129.792zM508.217 356.574c-52.499 0-95.214 42.714-95.214 95.212s42.697 95.214 95.214 95.214c52.516 0 95.214-42.715 95.214-95.214s-42.716-95.212-95.214-95.212zM1024 813.715c0 70.564-57.418 128-128 128s-128-57.436-128-128c0-64.348 47.781-117.614 109.716-126.537v-714.604c0-10.115 8.192-18.29 18.284-18.29s18.284 8.175 18.284 18.29v714.604c61.935 8.924 109.716 62.19 109.716 126.537zM896 722.287c-50.415 0-91.426 41.015-91.426 91.428s41.011 91.429 91.426 91.429c50.415 0 91.426-41.015 91.426-91.429s-41.011-91.428-91.426-91.428z" />
<glyph unicode="&#xe902;" glyph-name="heart" d="M512-23.040l-71.68 71.68c-266.24 235.52-440.32 394.242-440.32 588.802 0 158.72 122.88 281.6 281.6 281.6 87.040 0 174.080-40.96 230.4-107.52 56.32 66.56 143.36 107.52 230.4 107.52 158.72 0 281.6-122.88 281.6-281.6 0-194.56-174.080-353.282-440.32-588.802l-71.68-71.68z" />
<glyph unicode="&#xe903;" glyph-name="map" d="M863.903 395.262l157.668-323.9c6.411-13.175-0.33-23.95-14.979-23.95h-989.188c-14.651 0-21.392 10.775-14.979 23.95l157.672 323.9c2.508 5.152 9.25 9.368 14.979 9.368h135.196c4.166 0 9.793-2.608 12.521-5.759 9.172-10.599 18.516-20.953 27.832-31.204 8.848-9.734 17.743-19.587 26.567-29.673h-160.445c-5.731 0-12.472-4.215-14.979-9.37l-104.451-214.574h829.357l-104.442 214.574c-2.509 5.154-9.25 9.37-14.979 9.37h-160.808c8.818 10.086 17.721 19.94 26.567 29.673 9.341 10.28 18.739 20.617 27.932 31.217 2.725 3.143 8.34 5.746 12.498 5.746h135.481c5.729 0 12.47-4.213 14.979-9.368zM743.805 616.614c0-176.985-147.337-210.178-216.632-380.263-5.63-13.818-25.088-13.75-30.72 0.068-62.509 153.35-188.466 195.404-212.565 332.018-23.727 134.49 69.39 266.232 205.351 279.084 138.274 13.071 254.566-95.338 254.566-230.907zM634.334 616.614c0 67.657-54.847 122.505-122.505 122.505s-122.505-54.848-122.505-122.505c0-67.66 54.846-122.506 122.505-122.506s122.505 54.846 122.505 122.506z" />
<glyph unicode="&#xe904;" glyph-name="place" d="M765.611 854.958c-67.732 67.734-157.798 105.042-253.582 105.042-95.804 0-185.849-37.308-253.583-105.042-125.351-125.332-140.929-361.15-33.736-504.021l287.319-414.936 286.891 414.356c107.622 143.452 92.046 379.269-33.308 504.602zM515.339 473.779c-72.166 0-130.906 58.739-130.906 130.905s58.739 130.906 130.906 130.906c72.164 0 130.908-58.739 130.908-130.906s-58.743-130.905-130.908-130.905z" />
<glyph unicode="&#xe905;" glyph-name="search" d="M991.289 27.301l-243.712 253.474c62.663 74.49 96.996 168.214 96.996 265.785 0 227.967-185.475 413.439-413.44 413.439-227.967 0-413.44-185.473-413.44-413.439s185.472-413.441 413.44-413.441c85.582 0 167.14 25.816 236.863 74.815l245.567-255.397c10.263-10.661 24.070-16.538 38.866-16.538 14 0 27.284 5.336 37.37 15.047 21.424 20.617 22.107 54.807 1.49 76.254zM431.132 852.146c168.505 0 305.584-137.082 305.584-305.585 0-168.505-137.079-305.585-305.584-305.585s-305.586 137.079-305.586 305.585c0 168.503 137.082 305.585 305.586 305.585z" />
<glyph unicode="&#xe906;" glyph-name="user" d="M511.998 485.101c131.137 0 237.451 106.31 237.451 237.45s-106.314 237.449-237.451 237.449c-131.14 0-237.449-106.309-237.449-237.449s106.309-237.45 237.449-237.45zM511.997 366.376c-237.691 0-430.377-192.688-430.377-430.376h860.756c0 237.687-192.688 430.376-430.379 430.376z" />
<glyph unicode="&#xe907;" glyph-name="view" d="M284.444 903.111h739.556v-227.556h-739.556v227.556zM284.444 561.778h739.556v-227.556h-739.556v227.556zM284.444 220.444h739.556v-227.556h-739.556v227.556zM0 220.444h227.556v-227.556h-227.556v227.556zM0 561.778h227.556v-227.556h-227.556v227.556zM0 903.111h227.556v-227.556h-227.556v227.556z" />
<glyph unicode="&#xe908;" glyph-name="view-alternative" d="M551.385 960h315.077v-315.077h-315.077v315.077zM157.538 960h315.077v-315.077h-315.077v315.077zM157.538 566.154h315.077v-315.077h-315.077v315.077zM551.385 566.154h315.077v-315.077h-315.077v315.077z" />
<glyph unicode="&#xe909;" glyph-name="share" d="M813.306 304.902c-53.942 0-102.309-23.245-136.044-60.149l-293.060 140.959c7.005 19.512 11.003 40.369 11.003 62.288 0 21.883-4.016 42.776-11.003 62.288l293.060 140.923c33.735-36.885 82.159-60.183 136.044-60.183 101.877 0 184.491 82.597 184.491 184.477 0 101.898-82.614 184.495-184.491 184.495-101.899 0-184.496-82.597-184.496-184.495 0-9.766 0.99-19.283 2.458-28.641l-311.972-149.998c-30.498 22.29-67.967 35.593-108.637 35.593-101.88 0-184.477-82.579-184.477-184.424 0-101.935 82.597-184.515 184.477-184.515 40.67 0 78.139 13.306 108.62 35.63l311.956-150.033c-1.451-9.358-2.458-18.876-2.458-28.638 0-101.899 82.614-184.479 184.508-184.479 101.882 0 184.479 82.58 184.479 184.479 0 101.877-82.58 184.422-184.457 184.422z" />
<glyph unicode="&#xe90a;" glyph-name="select-arrow" d="M512.003 156.145c18.352 0 36.702 7.007 50.694 20.992l440.297 440.302c28.006 28.009 28.006 73.42 0 101.417-27.999 27.998-73.399 27.998-101.413 0l-389.578-389.603-389.583 389.59c-28.009 27.997-73.406 27.997-101.401 0-28.022-27.998-28.022-73.409 0-101.418l440.29-440.303c13.999-13.985 32.348-20.977 50.694-20.977z" />
<glyph unicode="&#xe90b;" glyph-name="checker" horiz-adv-x="1195" d="M1012.105 929.182l-597.335-597.202-232.197 232.124-182.572-182.569 414.773-414.712 779.894 779.787-182.562 182.573z" />
<glyph unicode="&#xe90c;" glyph-name="arrow-right" d="M597.336 21.333l426.664 426.668-426.664 426.665-121.043-121.043 227.852-227.852h-533.478v-155.544h533.478l-227.852-227.852 121.043-121.043z" />
<glyph unicode="&#xe90d;" glyph-name="camera" d="M984.014 715.202c-26.67 26.666-58.84 40.002-96.531 40.002h-119.467l-27.195 72.528c-6.758 17.42-19.109 32.444-37.074 45.072-17.958 12.622-36.357 18.938-55.203 18.938h-273.074c-18.845 0-37.246-6.316-55.205-18.938-17.957-12.628-30.309-27.653-37.066-45.072l-27.198-72.528h-119.468c-37.695 0-69.867-13.336-96.537-40.002-26.665-26.666-39.997-58.842-39.997-96.533v-477.872c0-37.693 13.332-69.872 39.997-96.531 26.67-26.67 58.844-40.006 96.537-40.006h750.936c37.691 0 69.859 13.336 96.531 40.006 26.662 26.659 39.998 58.838 39.998 96.531v477.872c0.008 37.691-13.328 69.867-39.986 96.533zM680.803 210.925c-46.755-46.757-103.018-70.141-168.8-70.141-65.784 0-122.042 23.384-168.802 70.141-46.758 46.75-70.134 103.026-70.134 168.794 0 65.789 23.382 122.046 70.134 168.805 46.754 46.76 103.019 70.134 168.802 70.134 65.781 0 122.045-23.381 168.8-70.134 46.758-46.754 70.136-103.016 70.136-168.805 0-65.768-23.376-122.037-70.136-168.794zM512.005 533.336c-42.314 0-78.491-15.022-108.538-45.072-30.046-30.046-45.069-66.219-45.069-108.542 0-42.306 15.022-78.485 45.069-108.53 30.046-30.040 66.222-45.064 108.538-45.064 42.307 0 78.49 15.024 108.536 45.064 30.046 30.045 45.070 66.222 45.070 108.53 0 42.322-15.024 78.494-45.070 108.542-30.045 30.046-66.229 45.072-108.536 45.072z" />
<glyph unicode="&#xe90e;" glyph-name="cross" d="M874.196 810.208c-199.714 199.713-524.689 199.733-724.421 0s-199.713-524.688 0-724.419c199.713-199.731 524.687-199.731 724.421 0 199.709 199.73 199.709 524.706 0 724.419zM713.983 245.999c-15.387-15.387-40.329-15.387-55.716 0l-146.283 146.283-153.237-153.237c-15.387-15.389-40.329-15.389-55.716 0-15.387 15.386-15.387 40.329 0 55.715l153.237 153.238-146.283 146.283c-15.386 15.387-15.386 40.349 0 55.715 15.387 15.387 40.329 15.387 55.716 0l146.283-146.283 139.309 139.309c15.387 15.387 40.329 15.387 55.716 0s15.386-40.329 0-55.715l-139.309-139.309 146.283-146.283c15.386-15.387 15.386-40.329 0-55.716z" />
<glyph unicode="&#xe90f;" glyph-name="danger" d="M857.304-17.493h-690.612c-60.167 0-114.049 31.113-144.129 83.211-30.081 52.105-30.086 114.324 0 166.428l345.311 598.087c30.081 52.102 83.962 83.211 144.129 83.211 60.169 0 114.048-31.11 144.131-83.211l345.304-598.087c30.089-52.105 30.089-114.318 0-166.428-30.083-52.105-83.968-83.211-144.134-83.211zM512.003 865.615c-42.876 0-81.269-22.17-102.708-59.296l-345.309-598.088c-21.437-37.131-21.434-81.465 0-118.596 21.433-37.126 59.832-59.295 102.708-59.295h690.611c42.877 0 81.266 22.17 102.707 59.295 21.436 37.126 21.436 81.471 0 118.596l-345.304 598.088c-21.436 37.131-59.829 59.296-102.704 59.296zM929.451 205.528l-332.954 576.697c-17.636 30.549-49.224 48.782-84.494 48.782-35.276 0-66.863-18.238-84.498-48.782l-332.956-576.697c-17.64-30.549-17.636-67.021 0-97.564s49.223-48.782 84.498-48.782h665.913c35.271 0 66.862 18.239 84.497 48.782s17.63 67.021-0.006 97.564zM451.702 602.267c0 33.246 27.049 60.295 60.295 60.295s60.293-27.049 60.293-60.295v-195.676c0-33.246-27.047-60.297-60.293-60.297s-60.295 27.051-60.295 60.297v195.676zM511.998 168.442c-34.070 0-61.788 27.716-61.788 61.787s27.719 61.787 61.788 61.787c34.070 0 61.789-27.716 61.789-61.787s-27.72-61.787-61.789-61.787z" />
<glyph unicode="&#xe910;" d="M512-64c282.772 0 512 229.228 512 512 0 282.77-229.228 512-512 512-282.77 0-512-229.23-512-512 0-282.772 229.23-512 512-512z" />
<glyph unicode="&#xe911;" d="M1024.006 447.997c0-282.882-229.279-511.997-512.001-511.997-160.96 0-304.64 74.234-398.56 190.555 87.84-71.037 199.68-113.436 321.44-113.436 282.718 0 512.003 229.12 512.003 511.998 0 121.76-42.405 233.599-113.442 321.439 116.161-93.92 190.561-237.599 190.561-398.559z" />
<glyph unicode="&#xe912;" d="M310.276 814.141c0 0-104.032 14.624-213.248-111.808 0 0 70.624 226.496 213.248 111.808z" />
<glyph unicode="&#xe913;" d="M713.637 814.141c0 0 104.033 14.624 213.248-111.808 0 0-70.622 226.496-213.248 111.808z" />
<glyph unicode="&#xe914;" d="M749.17 156.023c-63.073 10.496-149.635 27.011-236.834 26.527-88.703 0.961-156.864-12.413-236.447-26.527 66.304 38.081 124.192 59.648 236.64 62.976 45.792-1.729 127.938-2.719 236.641-62.976z" />
<glyph unicode="&#xe915;" d="M776.932 117.487c-9.091 22.5-19.2 42.98-27.745 58.596-53.919 98.719-140.322 77.34-171.713 48.475-30.304 18.369-72.192-3.612-67.040-42.012 55.808-15.201 65.857-68.193 68.286-116.577 1.86-37.057 21.123-74.752 55.683-88.223 86.113-33.599 178.273 51.263 142.529 139.742z" />
<glyph unicode="&#xe916;" d="M318.333 361.847c95.223 0 172.416 77.265 172.416 172.576s-77.193 172.576-172.416 172.576c-95.223 0-172.416-77.265-172.416-172.576s77.193-172.576 172.416-172.576z" />
<glyph unicode="&#xe917;" d="M345.912 534.427l106.848 106.848c8.544 8.512-19.008 36.128-27.552 27.616l-106.752-107.007-106.944 106.944c-7.2 7.2-34.784-20.416-27.584-27.616l106.784-106.751-106.784-106.752c-8.224-8.192 19.424-35.839 27.616-27.68l106.944 106.656 106.72-106.72c6.144-6.144 33.728 21.504 27.552 27.648l-106.848 106.816z" />
<glyph unicode="&#xe918;" d="M705.917 361.847c95.221 0 172.413 77.265 172.413 172.576s-77.193 172.576-172.413 172.576c-95.226 0-172.417-77.265-172.417-172.576s77.191-172.576 172.417-172.576z" />
<glyph unicode="&#xe919;" d="M733.377 534.427l106.849 106.848c8.539 8.512-19.012 36.128-27.557 27.616l-106.752-107.007-106.94 106.944c-7.202 7.2-34.787-20.416-27.585-27.616l106.78-106.751-106.78-106.752c-8.194-8.16 19.422-35.808 27.614-27.647l106.945 106.655 106.718-106.72c6.144-6.144 33.729 21.504 27.557 27.648l-106.849 106.784z" />
<glyph unicode="&#xe91a;" d="M578.719 65.94c1.855-37.057 21.117-74.752 55.677-88.223 57.731-22.494 117.953 8.289 140.8 57.6-106.172-57.759-159.135-8.323-181.407 81.533-18.813 75.844-81.407 65.701-81.407 65.701l-0.576-0.546c54.464-15.747 64.513-68.096 66.914-116.065z" />
<glyph unicode="&#xe91b;" d="M687.536 219.716c-1.087-7.68-16.35-3.328-36.187-1.98-19.843 0.671-37.251-2.020-36.164 5.66 1.058 7.68 17.698 13.056 38.047 12.032 19.809-1.024 34.816-8.033 34.304-15.713z" />
<glyph unicode="&#xe91c;" d="M512-64c282.772 0 512 229.228 512 512 0 282.77-229.228 512-512 512-282.77 0-512-229.23-512-512 0-282.772 229.23-512 512-512z" />
<glyph unicode="&#xe91d;" d="M1024.006 447.997c0-282.882-229.279-511.997-512.001-511.997-160.96 0-304.64 74.234-398.56 190.555 87.84-71.037 199.68-113.436 321.44-113.436 282.718 0 512.003 229.12 512.003 511.998 0 121.76-42.405 233.599-113.442 321.439 116.161-93.92 190.561-237.599 190.561-398.559z" />
<glyph unicode="&#xe91e;" d="M306.753 269.852c19.328 6.047 87.552-63.903 200.321-59.904 112.736-4.033 185.986 65.917 205.311 59.87 28.223-2.401-29.918-131.231-202.912-131.681-172.96 0.449-230.944 129.28-202.72 131.715z" />
<glyph unicode="&#xe91f;" d="M790.767 575.367c-62.174 81.696-146.21 69.344-162.401 66.016-11.617-2.336-22.812 5.12-25.151 16.64-2.367 11.552 5.12 22.816 16.64 25.152 59.585 12.128 144.737-3.008 204.897-81.984 7.134-9.376 5.313-22.752-4.068-29.92-9.404-7.104-22.812-5.248-29.918 4.096z" />
<glyph unicode="&#xe920;" d="M677.052 423.256c-45.887 0-86.562 29.536-101.251 73.505-3.743 11.168 2.304 23.264 13.505 26.976 11.167 3.712 23.262-2.304 26.977-13.504 8.835-26.496 33.246-44.32 60.769-44.32 27.517 0 51.905 17.824 60.769 44.32 3.743 11.168 15.838 17.152 26.977 13.504 11.167-3.744 17.215-15.808 13.5-26.976-14.683-43.969-55.359-73.505-101.245-73.505z" />
<glyph unicode="&#xe921;" d="M203.336 571.339c-9.376 7.136-11.2 20.512-4.064 29.888 60.128 79.008 145.216 94.112 204.864 82.016 11.552-2.368 19.008-13.632 16.64-25.152-2.368-11.552-13.632-18.976-25.152-16.64-16.224 3.296-100.256 15.648-162.4-66.016-7.136-9.44-20.544-11.2-29.888-4.096z" />
<glyph unicode="&#xe922;" d="M346.908 423.291c-45.888 0-86.56 29.536-101.216 73.504-3.744 11.168 2.304 23.264 13.504 26.976 11.2 3.776 23.264-2.336 26.976-13.504 8.832-26.496 33.248-44.32 60.736-44.32s51.904 17.824 60.768 44.32c3.744 11.168 15.84 17.152 26.976 13.504 11.168-3.744 17.216-15.808 13.504-26.976-14.656-43.968-55.36-73.504-101.248-73.504z" />
<glyph unicode="&#xe923;" glyph-name="update" d="M234.533 756.938c151.182 136.753 377.43 138.844 530.702 14.010l-121.488-4.6c-15.681-0.627-27.811-13.592-27.183-29.274 0.626-15.265 13.172-27.183 28.227-27.183 0.419 0 0.628 0 1.047 0l186.519 6.9c15.265 0.626 27.183 12.964 27.183 28.228v2.091c0 0.418 0 0.627 0 1.046v0.209l-6.9 184.429c-0.626 15.683-13.801 27.811-29.275 27.183-15.681-0.627-27.809-13.592-27.183-29.274l4.392-115.634c-75.904 62.104-169.374 98.069-269.326 103.088-123.788 6.273-242.767-36.175-334.564-119.398-126.298-114.38-179.829-288.353-139.681-453.961 3.137-12.965 14.637-21.539 27.392-21.539 2.3 0 4.391 0.209 6.691 0.835 15.055 3.766 24.465 19.030 20.701 34.085-35.129 145.536 11.71 298.389 122.744 398.759zM967.017 551.184c-3.763 15.055-19.028 24.467-34.083 20.701-15.055-3.763-24.464-19.028-20.701-34.083 35.337-145.536-11.711-298.389-122.743-398.76-77.996-70.467-175.856-105.179-273.299-105.179-93.051 0-185.893 31.576-260.752 93.889l122.954 11.082c15.472 1.462 26.973 15.055 25.509 30.736-1.464 15.683-15.055 26.975-30.739 25.512l-185.892-16.728c-15.474-1.464-26.974-15.055-25.511-30.739l16.728-185.891c1.255-14.639 13.592-25.721 28.020-25.721 0.836 0 1.673 0 2.509 0.209 15.474 1.464 26.973 15.055 25.512 30.739l-10.038 113.124c75.904-61.477 168.956-97.233 268.279-102.251 7.945-0.419 15.891-0.628 23.629-0.628 115.216 0 224.784 42.24 310.935 120.027 126.299 114.378 179.828 288.142 139.681 453.96z" />
</font>
</defs>
</svg>
